<svg xmlns="http://www.w3.org/2000/svg" width="190" height="50" version="1.0" viewBox="0 0 197 50"><g fill="#000"><path d="M9.5 2.4C1.8 5.8.1 11.2 0 31.7V46h12.9l.3-5.3c.2-3.8.7-5.2 1.8-5.2s1.6-1.4 1.8-5.8c.3-5.2.1-5.7-1.8-5.7-1.6 0-2-.6-2-3.3 0-4.1 2.1-7.3 4.4-6.4 1.4.6 1.6 2.7 1.6 16.2V46h13V28.2c0-16-.2-18-2-21-3.5-5.7-13.4-8-20.5-4.8zM117.7 4.1c-5.7 4.7-8 10-7.5 17.2l.4 6-2.3-2.7c-1.3-1.5-2.3-3.8-2.3-5.2 0-6.3-5.8 1.8-6.6 9.3-2 18.1 24.4 27.3 38.1 13.3 3.5-3.5 3.9-4.6 4.3-10 .4-5.2.1-6.6-2.1-9.8-1.3-2.1-5.2-5.5-8.4-7.6-6.5-4.1-9.8-8.5-8.8-11.6.9-2.8-.4-2.5-4.8 1.1zM131 20.6c8.5 5.1 7.8 16.3-1.3 21-4.2 2.2-12.5 2.1-16.8-.2l-3.4-1.8 3.4-1c1.9-.5 5.2-2.8 7.3-4.9 3.9-4 4.6-3.8 2.8.7-1.2 3.3 0 3.3 2.9.2 3-3.2 3.9-9.8 1.7-13.1-1.9-2.9-.7-3.3 3.4-.9zM56 17.8c0 14.4.2 16.2 2.3 20.2 2.5 5.2 7.2 8 13 8H75v-5.9c0-5.5-.2-6.1-2.7-7.3l-2.8-1.3-.3-14.8L68.9 2H56v15.8zM156.3 3.2c4.6 12 18.1 43.8 18.6 43.8s9.4-20.8 17.4-40.7l1.7-4.4-7.2.3-7.3.3-2 5.7c-1.1 3.2-2.2 5.8-2.6 5.8-.3 0-1.4-2.7-2.3-6l-1.7-6h-7.6c-5.6 0-7.4.3-7 1.2z"/></g></svg>
