<?xml version="1.0" standalone="no"?>
<!DOCTYPE svg PUBLIC "-//W3C//DTD SVG 20010904//EN"
 "http://www.w3.org/TR/2001/REC-SVG-20010904/DTD/svg10.dtd">
<svg version="1.0" xmlns="http://www.w3.org/2000/svg"
 width="273.000000pt" height="324.000000pt" viewBox="0 0 273.000000 324.000000"
 preserveAspectRatio="xMidYMid meet">

<g transform="translate(0.000000,324.000000) scale(0.100000,-0.100000)"
fill="#000000" stroke="none">
<path d="M1363 2894 c-331 -187 -543 -460 -584 -753 -15 -105 -3 -411 20 -518
11 -54 14 -83 7 -83 -6 0 -46 36 -88 79 -103 105 -132 167 -163 347 -13 75
-26 138 -28 140 -2 3 -32 -25 -66 -61 -137 -147 -201 -271 -242 -468 -28 -139
-23 -366 11 -472 47 -147 121 -264 242 -382 225 -220 517 -333 857 -333 353 0
632 107 865 330 129 124 201 241 249 408 30 107 29 310 -2 427 -67 252 -198
409 -506 610 -99 64 -205 133 -235 154 -98 64 -197 172 -238 259 -35 72 -37
83 -37 172 0 68 5 107 18 138 27 67 28 67 -80 6z m319 -925 c133 -46 252 -122
338 -215 99 -109 146 -223 156 -380 10 -165 -25 -274 -133 -407 -94 -114 -206
-187 -386 -250 l-92 -32 -205 1 c-202 1 -206 2 -300 33 -52 18 -122 47 -155
66 -74 41 -145 92 -145 104 0 5 48 21 107 35 183 46 326 126 430 240 48 52 73
87 138 192 l30 49 3 -90 c4 -110 -10 -179 -55 -268 -32 -64 -33 -67 -11 -56
52 27 160 114 214 172 68 73 128 193 150 298 12 57 13 87 4 147 -19 141 -39
191 -121 304 -27 37 -49 70 -49 73 0 9 19 5 82 -16z"/>
</g>
</svg>
